<svg width="32" height="32" viewBox="0 0 32 32" fill="none" xmlns="http://www.w3.org/2000/svg">
<path d="M17.3332 24V13.3333L21.9998 18L23.8932 16.1067L15.9998 8.21332L8.1065 16.1067L9.99984 18L14.6665 13.3333V24H17.3332ZM15.9998 2.66666C17.7508 2.66666 19.4846 3.01153 21.1023 3.6816C22.72 4.35166 24.1898 5.33379 25.4279 6.5719C26.666 7.81001 27.6482 9.27987 28.3182 10.8975C28.9883 12.5152 29.3332 14.249 29.3332 16C29.3332 19.5362 27.9284 22.9276 25.4279 25.4281C22.9274 27.9286 19.5361 29.3333 15.9998 29.3333C14.2489 29.3333 12.5151 28.9885 10.8974 28.3184C9.27972 27.6483 7.80986 26.6662 6.57175 25.4281C4.07126 22.9276 2.6665 19.5362 2.6665 16C2.6665 12.4638 4.07126 9.07239 6.57175 6.5719C9.07223 4.07141 12.4636 2.66666 15.9998 2.66666Z" fill="white"/>
</svg>
