<svg width="32" height="32" viewBox="0 0 32 32" fill="none" xmlns="http://www.w3.org/2000/svg">
<path d="M15.7735 12L20.0002 16.2133V16C20.0002 14.9391 19.5787 13.9217 18.8286 13.1716C18.0784 12.4214 17.061 12 16.0002 12H15.7735ZM10.0402 13.0667L12.1068 15.1333C12.0402 15.4133 12.0002 15.6933 12.0002 16C12.0002 17.0609 12.4216 18.0783 13.1717 18.8284C13.9219 19.5786 14.9393 20 16.0002 20C16.2935 20 16.5868 19.96 16.8668 19.8933L18.9335 21.96C18.0402 22.4 17.0535 22.6667 16.0002 22.6667C14.2321 22.6667 12.5364 21.9643 11.2861 20.714C10.0359 19.4638 9.3335 17.7681 9.3335 16C9.3335 14.9467 9.60016 13.96 10.0402 13.0667ZM2.66683 5.69333L5.70683 8.73333L6.30683 9.33333C4.10683 11.0667 2.3735 13.3333 1.3335 16C3.64016 21.8533 9.3335 26 16.0002 26C18.0668 26 20.0402 25.6 21.8402 24.88L22.4135 25.44L26.3068 29.3333L28.0002 27.64L4.36016 4M16.0002 9.33333C17.7683 9.33333 19.464 10.0357 20.7142 11.286C21.9645 12.5362 22.6668 14.2319 22.6668 16C22.6668 16.8533 22.4935 17.68 22.1868 18.4267L26.0935 22.3333C28.0935 20.6667 29.6935 18.48 30.6668 16C28.3602 10.1467 22.6668 6 16.0002 6C14.1335 6 12.3468 6.33333 10.6668 6.93333L13.5602 9.8C14.3202 9.50667 15.1335 9.33333 16.0002 9.33333Z" fill="white"/>
</svg>
