<svg width="32" height="32" viewBox="0 0 32 32" fill="none" xmlns="http://www.w3.org/2000/svg">
<path d="M5.33317 26.6667C4.59984 26.6667 3.97184 26.4053 3.44917 25.8827C2.92651 25.36 2.66562 24.7324 2.66651 24V20H5.33317V24H26.6665V8H5.33317V12H2.66651V8C2.66651 7.26666 2.92784 6.63866 3.45051 6.116C3.97317 5.59333 4.60073 5.33244 5.33317 5.33333H26.6665C27.3998 5.33333 28.0278 5.59466 28.5505 6.11733C29.0732 6.64 29.3341 7.26755 29.3332 8V24C29.3332 24.7333 29.0718 25.3613 28.5492 25.884C28.0265 26.4067 27.399 26.6676 26.6665 26.6667H5.33317ZM15.3332 22L13.4665 20.0667L16.2332 17.3333H2.66651V14.6667H16.2332L13.4665 11.9333L15.3332 10L21.3332 16L15.3332 22Z" fill="white"/>
</svg>
