<svg width="32" height="32" viewBox="0 0 32 32" fill="none" xmlns="http://www.w3.org/2000/svg">
<path d="M10.6665 21.3333C10.6665 25.104 10.6665 26.9906 11.8385 28.1613C13.0092 29.3333 14.8958 29.3333 18.6665 29.3333H19.9998C23.7705 29.3333 25.6572 29.3333 26.8278 28.1613C27.9998 26.9906 27.9998 25.104 27.9998 21.3333V10.6666C27.9998 6.89596 27.9998 5.00929 26.8278 3.83863C25.6572 2.66663 23.7705 2.66663 19.9998 2.66663H18.6665C14.8958 2.66663 13.0092 2.66663 11.8385 3.83863C10.6665 5.00929 10.6665 6.89596 10.6665 10.6666" stroke="white" stroke-width="2.5" stroke-linecap="round"/>
<path d="M10.6667 26C7.524 26 5.952 26 4.976 25.024C4 24.0467 4 22.476 4 19.3333V12.6667C4 9.524 4 7.952 4.976 6.976C5.952 6 7.524 6 10.6667 6" stroke="white" stroke-width="2.5"/>
<path d="M8 16H20M20 16L16.6667 19.3333M20 16L16.6667 12.6666" stroke="white" stroke-width="2.5" stroke-linecap="round" stroke-linejoin="round"/>
</svg>
