<svg width="32" height="32" viewBox="0 0 32 32" fill="none" xmlns="http://www.w3.org/2000/svg">
<path d="M15.6727 6.33332C18.4727 6.33332 21.1394 7.39999 23.1394 9.39999C27.2727 13.5333 27.2727 20.3333 23.1394 24.4667C20.7394 27 17.4061 27.9333 14.2061 27.5333L14.8727 24.8667C17.1394 25.1333 19.5394 24.3333 21.2727 22.6C24.3394 19.5333 24.3394 14.4667 21.2727 11.2667C19.8061 9.79999 17.6727 8.99999 15.6727 8.99999V15.1333L9.00606 8.46665L15.6727 1.79999V6.33332ZM8.07273 24.4667C4.60606 21 4.07273 15.6667 6.47273 11.5333L8.47273 13.5333C7.00606 16.4667 7.53939 20.2 10.0727 22.6C10.7394 23.2667 11.5394 23.8 12.4727 24.2L11.6727 26.8667C10.3394 26.3333 9.13939 25.5333 8.07273 24.4667Z" fill="white"/>
</svg>
